<?xml version="1.0" encoding="utf-8"?>
<!-- Generator: Adobe Illustrator 19.1.0, SVG Export Plug-In . SVG Version: 6.00 Build 0)  -->
<svg version="1.1" id="Слой_1" xmlns="http://www.w3.org/2000/svg" xmlns:xlink="http://www.w3.org/1999/xlink" x="0px" y="0px"
	 viewBox="96.3 141.3 70 64.8" style="enable-background:new 96.3 141.3 70 64.8;" xml:space="preserve">
<style type="text/css">
	.st0{fill:url(#SVGID_1_);}
</style>
<linearGradient id="SVGID_1_" gradientUnits="userSpaceOnUse" x1="131.25" y1="206.1572" x2="131.25" y2="141.3428">
	<stop  offset="0" style="stop-color:#4caf50"/>
	<stop  offset="1" style="stop-color:#4caf50"/>
</linearGradient>
<path class="st0" d="M154.6,185.4c5,0,9.1,4.1,9.1,9.1s-4.1,9.1-9.1,9.1c-5,0-9.1-4.1-9.1-9.1S149.6,185.4,154.6,185.4 M154.6,182.8
	c-6.4,0-11.7,5.2-11.7,11.7c0,6.4,5.2,11.7,11.7,11.7c6.4,0,11.7-5.2,11.7-11.7C166.3,188,161,182.8,154.6,182.8L154.6,182.8z
	 M159.2,197.2l-3.3-3.3v-4.6c0-0.7-0.6-1.3-1.3-1.3c-0.7,0-1.3,0.6-1.3,1.3v5.2c0,0,0,0,0,0c0,0.2,0,0.3,0.1,0.5
	c0.1,0.2,0.2,0.3,0.3,0.4c0,0,0,0,0,0l3.7,3.7c0.5,0.5,1.3,0.5,1.8,0C159.7,198.6,159.7,197.7,159.2,197.2z M158.5,149.1
	c0-1.4-1.2-2.6-2.6-2.6h-5.2v-1.3c0-2.1-1.7-3.9-3.9-3.9c-2.1,0-3.9,1.7-3.9,3.9v1.3h-2.6v-1.3c0-2.1-1.7-3.9-3.9-3.9
	c-2.1,0-3.9,1.7-3.9,3.9v1.3h-10.4v-1.3c0-2.1-1.7-3.9-3.9-3.9c-2.1,0-3.9,1.7-3.9,3.9v1.3h-2.6v-1.3c0-2.1-1.7-3.9-3.9-3.9
	c-2.1,0-3.9,1.7-3.9,3.9v1.3h-5.2c-1.4,0-2.6,1.2-2.6,2.6v49.3c0,1.4,1.2,2.6,2.6,2.6h35h0c0.7,0,1.3-0.6,1.3-1.3
	c0-0.7-0.6-1.3-1.3-1.3h-35v-38.9h57v14.3l0,0c0,0.7,0.6,1.3,1.3,1.3c0.7,0,1.3-0.6,1.3-1.3v0l0,0V149.1z M145.5,145.2
	c0-0.7,0.6-1.3,1.3-1.3c0.7,0,1.3,0.6,1.3,1.3v6.5h-2.6V145.2z M135.1,145.2c0-0.7,0.6-1.3,1.3-1.3c0.7,0,1.3,0.6,1.3,1.3v6.5h-2.6
	V145.2z M117,145.2c0-0.7,0.6-1.3,1.3-1.3c0.7,0,1.3,0.6,1.3,1.3v6.5H117V145.2z M106.6,145.2c0-0.7,0.6-1.3,1.3-1.3
	c0.7,0,1.3,0.6,1.3,1.3v6.5h-2.6V145.2z M98.8,156.9v-7.8h5.2v2.6c0,1.4,1.2,2.6,2.6,2.6h2.6c1.4,0,2.6-1.2,2.6-2.6v-2.6h2.6v2.6
	c0,1.4,1.2,2.6,2.6,2.6h2.6c1.4,0,2.6-1.2,2.6-2.6v-2.6h10.4v2.6c0,1.4,1.2,2.6,2.6,2.6h2.6c1.4,0,2.6-1.2,2.6-2.6v-2.6h2.6v2.6
	c0,1.4,1.2,2.6,2.6,2.6h2.6c1.4,0,2.6-1.2,2.6-2.6v-2.6h5.2v7.8H98.8z M146.8,167.3h-38.9c-0.7,0-1.3,0.6-1.3,1.3v20.7
	c0,0.7,0.6,1.3,1.3,1.3h25.9c0.7,0,1.3-0.6,1.3-1.3v-9.1h11.7c0.7,0,1.3-0.6,1.3-1.3v-10.4C148.1,167.8,147.5,167.3,146.8,167.3z
	 M110.9,172.1c-0.5-0.5-0.5-1.3,0-1.8c0.5-0.5,1.3-0.5,1.8,0l1.7,1.7l1.7-1.7c0.5-0.5,1.3-0.5,1.8,0c0.5,0.5,0.5,1.3,0,1.8l-1.7,1.7
	l1.7,1.7c0.5,0.5,0.5,1.3,0,1.8c-0.5,0.5-1.3,0.5-1.8,0l-1.7-1.7l-1.7,1.7c-0.5,0.5-1.3,0.5-1.8,0c-0.5-0.5-0.5-1.3,0-1.8l1.7-1.7
	L110.9,172.1z M119.6,188h-10.4v-7.8h10.4V188z M132.5,188h-10.4v-7.8h10.4V188z M132.5,177.6h-10.4v-7.8h10.4V177.6z M145.5,177.6
	h-10.4v-7.8h10.4V177.6z"/>
</svg>
