<?xml version="1.0" encoding="utf-8"?>
<!-- Generator: Adobe Illustrator 19.1.0, SVG Export Plug-In . SVG Version: 6.00 Build 0)  -->
<svg version="1.1" id="Слой_1" xmlns="http://www.w3.org/2000/svg" xmlns:xlink="http://www.w3.org/1999/xlink" x="0px" y="0px"
	 viewBox="-293 387 23.2 20" style="enable-background:new -293 387 23.2 20;" xml:space="preserve">

<g>
	

	<path class="st0" d="M-270.6,402.3h-4.2v-0.9h1.1c0.3,0,0.7-0.2,0.8-0.6l0.6-1.9c0.1-0.2,0.1-0.4,0-0.5l-0.6-1.9
		c-0.1-0.4-0.4-0.6-0.8-0.6h-1.1c-0.1-4.8-4-8.8-8.9-8.9h-0.2c-2.4,0-4.7,1-6.4,2.7c-1.7,1.7-2.6,4-2.6,6.5v4.9c0,2.2,1.8,4,4,4
		h13.3c0.5,0,0.8-0.4,0.8-0.8v-0.4h0.2h3.2v1.9v0.4c0,0.5,0.4,0.8,0.8,0.8c0.5,0,0.8-0.4,0.8-0.8v-3.1
		C-269.9,402.6-270.3,402.3-270.6,402.3z M-289,403.6c-1.3,0-2.3-1.1-2.3-2.4v-4.9c0-4.2,3.3-7.5,7.4-7.5h0.2c4,0.1,7.2,3.4,7.2,7.4
		v7.4L-289,403.6L-289,403.6z M-275,399.7v-2.1h0.5l0.4,1.1l-0.4,1.1h-0.5V399.7z"/>
	

	<path class="st1" d="M-284,391.1c-2.8,0-5.1,2.3-5.1,5.1c0,2.8,2.3,5.1,5.1,5.1c2.8,0,5.1-2.3,5.1-5.1
		C-279,393.4-281.1,391.1-284,391.1z M-284,399.9c-2.1,0-3.8-1.7-3.8-3.8s1.7-3.8,3.8-3.8s3.8,1.7,3.8,3.8S-281.9,399.9-284,399.9z"
		/>
</g>
</svg>
